<?xml version="1.0" encoding="UTF-8" standalone="no"?><!DOCTYPE svg PUBLIC "-//W3C//DTD SVG 1.1//EN" "http://www.w3.org/Graphics/SVG/1.1/DTD/svg11.dtd"><svg width="100%" height="100%" viewBox="0 0 261 104" version="1.1" xmlns="http://www.w3.org/2000/svg" xmlns:xlink="http://www.w3.org/1999/xlink" xml:space="preserve" xmlns:serif="http://www.serif.com/" style="fill-rule:evenodd;clip-rule:evenodd;stroke-linejoin:round;stroke-miterlimit:2;"><path d="M-0,96.401l6.326,0c6.518,0 9.32,-4.904 9.32,-10.169c0,-5.519 -3.036,-9.468 -9.341,-9.468l-6.305,-0l-0,19.637Zm2.59,-2.208l0,-15.243l3.439,0c4.055,0 6.751,1.932 6.751,7.41c0,5.71 -2.696,7.833 -6.56,7.833l-3.63,0Zm16.729,-1.528c0,2.908 1.698,4.161 4.076,4.161c3.121,-0 4.458,-1.911 4.968,-2.93l0.106,2.505l2.187,0l-0,-13.65l-2.378,-0l-0,7.706c-0.425,1.465 -1.614,4.31 -4.501,4.31c-1.422,-0 -2.08,-0.765 -2.08,-2.803l-0,-9.213l-2.378,-0l0,9.914Zm15.901,3.736l2.378,0l-0,-6.963c0.361,-2.038 1.337,-4.862 3.354,-4.862c0.87,0 1.38,0.849 1.38,0.849l1.295,-1.868c0,0 -0.679,-1.21 -2.229,-1.21c-2.166,0 -3.418,1.741 -3.885,3.057l-0,-2.653l-2.293,-0l0,13.65Zm10.594,-8.853c-0,1.423 0.382,2.59 1.125,3.418c-1.104,0.765 -1.826,1.656 -1.826,3.036c0,1.635 1.019,2.251 2.187,2.675c-0.849,0.552 -2.187,1.656 -2.187,3.376c0,2.951 3.864,3.545 6.348,3.545c3.673,0 6.56,-1.337 6.56,-4.585c-0,-3.418 -3.248,-3.801 -6.157,-3.97c-2.399,-0.149 -4.607,-0.192 -4.607,-1.614c0,-0.616 0.382,-1.061 0.977,-1.486c0.807,0.382 1.783,0.594 2.951,0.594c3.439,0 5.562,-1.804 5.562,-5.116c-0,-0.955 -0.191,-1.783 -0.531,-2.484c1.359,-0.658 2.017,-1.741 2.017,-3.078c0,-0.297 -0.042,-0.616 -0.127,-0.977l-2.038,-0.297l-0,1.04c-0,0.743 -0.213,1.486 -0.786,2.081c-0.955,-0.892 -2.293,-1.359 -3.97,-1.359c-3.609,0 -5.498,2.081 -5.498,5.201Zm5.392,3.185c-2.038,-0 -2.845,-1.189 -2.845,-3.248c0,-2.102 0.871,-3.333 2.909,-3.333c2.017,-0 2.908,1.189 2.908,3.269c0,2.123 -0.891,3.312 -2.972,3.312Zm0.34,6.539c2.314,0.148 4.246,0.467 4.246,2.101c-0,1.699 -1.996,2.314 -4.374,2.314c-1.783,0 -4.161,-0.36 -4.161,-2.08c0,-1.189 1.083,-1.953 2.017,-2.484c0.871,0.085 1.295,0.085 2.272,0.149Zm20.592,-0.658l0.468,-2.081c-1.805,0.318 -1.678,-0.743 -1.678,-1.826l0,-5.392c0,-3.46 -1.443,-4.968 -4.946,-4.968c-3.949,0 -5.753,1.656 -5.435,4.267l2.357,0.425c-0.149,-2.017 1.061,-2.739 2.908,-2.739c2.102,0 2.739,0.977 2.739,3.333l-0,0.765c-5.159,0.042 -8.471,1.613 -8.471,4.734c0,2.505 2.102,3.694 4.31,3.694c2.123,-0 3.736,-1.189 4.394,-2.42c0.085,1.252 0.764,2.526 3.354,2.208Zm-3.587,-4.947c-0.128,1.762 -1.911,3.184 -3.716,3.184c-1.401,0 -2.207,-0.743 -2.207,-1.889c-0,-1.762 1.719,-2.717 5.923,-2.739l-0,1.444Zm18.745,4.734l1.954,0l3.396,-9.341c0.319,-0.934 0.68,-2.08 1.019,-3.121l4.501,12.462l1.974,0l6.709,-19.637l-2.59,-0l-4.034,11.931c-0.382,1.168 -0.764,2.59 -1.104,3.758c-0.297,-1.168 -0.7,-2.675 -1.104,-3.758l-4.33,-11.931l-2.697,-0l1.444,3.906l-2.908,8.025c-0.446,1.189 -0.871,2.632 -1.168,3.758c-0.297,-1.126 -0.743,-2.612 -1.125,-3.758l-4.267,-11.931l-2.781,-0l7.111,19.637Zm32.1,-6.454l-0,-1.486c-0,-4.161 -1.932,-6.114 -5.52,-6.114c-4.755,0 -6.305,3.652 -6.305,7.303c-0,4.904 2.314,7.176 6.348,7.176c3.014,-0 4.797,-1.465 5.477,-3.906l-2.081,-0.404c-0.382,1.232 -1.55,2.335 -3.333,2.335c-3.121,0 -3.821,-2.377 -3.864,-4.904l9.278,0Zm-5.584,-5.647c2.145,0 3.121,1.401 3.121,3.206l0,0.552l-6.73,-0c0.361,-2.59 1.699,-3.758 3.609,-3.758Zm9.363,12.101l1.995,0l0.106,-1.804c0.722,1.231 1.911,2.229 4.204,2.229c4.097,-0 5.944,-3.418 5.944,-7.707c0,-3.354 -1.486,-6.772 -5.711,-6.772c-1.974,0 -3.333,1.04 -4.161,2.144l0,-9.426l-2.377,0l-0,21.336Zm6.241,-1.55c-2.356,0 -3.842,-2.101 -3.842,-5.158c-0,-3.079 1.422,-5.393 3.927,-5.393c2.081,0 3.354,1.614 3.354,4.989c0,3.164 -0.955,5.562 -3.439,5.562Zm16.05,-3.821c-0.212,2.76 2.038,5.796 6.687,5.796c4.565,-0 6.942,-2.505 6.942,-5.562c0,-6.836 -10.445,-4.692 -10.445,-10c0,-1.74 1.295,-2.781 3.503,-2.781c2.739,0 4.119,1.253 4.225,3.652l2.484,-0.531c0.148,-3.099 -2.527,-5.265 -6.603,-5.265c-3.885,0 -6.262,2.059 -6.262,5.223c-0,7.473 10.466,5.159 10.466,10.105c-0,1.911 -1.762,3.015 -4.246,3.015c-2.42,-0 -4.225,-1.253 -4.267,-4.204l-2.484,0.552Zm22.992,5.796c4.437,-0 6.305,-3.248 6.305,-7.473c-0,-4.416 -2.102,-7.006 -6.305,-7.006c-1.085,0 -2.025,0.188 -2.824,0.533c-2.391,1.031 -3.524,3.466 -3.524,6.473c-0,4.543 1.868,7.473 6.348,7.473Zm-0,-1.975c-2.463,0 -3.801,-1.783 -3.801,-5.201c0,-3.375 1.338,-5.35 3.801,-5.35c2.441,0 3.757,1.911 3.757,5.35c0,3.163 -1.316,5.201 -3.757,5.201Zm10.062,1.55l2.378,0l0,-21.336l-2.378,0l0,21.336Zm6.794,-3.736c-0,2.908 1.698,4.161 4.076,4.161c3.121,-0 4.458,-1.911 4.968,-2.93l0.106,2.505l2.187,0l-0,-13.65l-2.378,-0l-0,7.706c-0.425,1.465 -1.614,4.31 -4.501,4.31c-1.422,-0 -2.08,-0.765 -2.08,-2.803l-0,-9.213l-2.378,-0l-0,9.914Zm14.351,-8.004l2.336,0l-0,7.728c-0,2.165 0.636,4.309 3.354,4.309c2.038,0 2.993,-1.21 3.63,-2.738l-1.826,-0.807c-0.297,1.083 -0.764,1.592 -1.507,1.592c-0.955,0 -1.274,-0.785 -1.274,-2.484l0,-7.6l3.864,0l0,-1.91l-3.864,-0l0,-4.034l-2.186,-0l-0.149,4.034l-2.378,-0l0,1.91Zm11.719,-6.623c0,0.912 0.679,1.592 1.613,1.592c0.892,-0 1.593,-0.68 1.593,-1.592c-0,-0.892 -0.701,-1.614 -1.593,-1.614c-0.934,0 -1.613,0.722 -1.613,1.614Zm0.446,18.363l2.378,0l-0,-13.65l-2.378,-0l-0,13.65Zm12.483,0.425c4.437,-0 6.305,-3.248 6.305,-7.473c0,-4.416 -2.123,-7.006 -6.305,-7.006c-4.331,0 -6.369,2.994 -6.369,7.006c-0,4.543 1.889,7.473 6.369,7.473Zm-0,-1.975c-2.463,0 -3.8,-1.783 -3.8,-5.201c-0,-3.375 1.337,-5.35 3.8,-5.35c2.441,0 3.736,1.911 3.736,5.35c0,3.163 -1.295,5.201 -3.736,5.201Zm10.042,1.55l2.377,0l0,-7.282c0.276,-1.21 1.38,-4.734 4.437,-4.734c1.423,0 2.144,0.786 2.144,2.824l0,9.192l2.378,0l0,-9.872c0,-2.908 -1.826,-4.182 -4.14,-4.182c-3.205,0 -4.479,2.187 -4.904,3.121l0,-2.717l-2.292,-0l-0,13.65Zm14.775,-3.8c-0.297,2.994 2.739,4.225 5.499,4.225c3.121,-0 5.371,-1.55 5.371,-4.267c0,-5.053 -7.982,-3.142 -7.982,-6.56c-0,-1.168 0.997,-1.699 2.547,-1.699c2.442,0 2.803,1.465 2.611,2.421l2.378,-0.425c0.488,-2.654 -1.974,-3.949 -4.861,-3.949c-3.461,0 -5.117,1.783 -5.117,4.076c0,4.947 7.94,3.27 7.94,6.581c0,1.253 -1.231,1.847 -2.972,1.847c-2.293,0 -3.312,-1.146 -3.163,-2.611l-2.251,0.361Z" style="fill:#fff;fill-rule:nonzero;"/><path d="M96.963,33.689l5.712,10.496l-6.931,12.88l-7.351,0l8.57,-23.376Zm42.367,9.039l5.013,9.239l-3.05,5.098l-7.331,0l5.368,-14.337Z" style="fill:#fff;fill-rule:nonzero;"/><path d="M109.132,0l-15.201,0l0,5.539l-12.238,0l0,8.115l31.947,32.977l0,10.434l7.343,0l-0,-23.444l20.772,-0l12.442,12.811l-0,10.633l7.363,0l0,-22.284l13.011,13.396l3.736,0l-29.886,-31.173l-22.758,-0l-16.531,-17.004Z" style="fill:#fff;fill-rule:nonzero;"/></svg>