<?xml version="1.0" encoding="UTF-8" standalone="no"?>
<!DOCTYPE svg PUBLIC "-//W3C//DTD SVG 1.1//EN" "http://www.w3.org/Graphics/SVG/1.1/DTD/svg11.dtd">
<svg width="100%" height="100%" viewBox="0 0 177 60" version="1.1" xmlns="http://www.w3.org/2000/svg" xmlns:xlink="http://www.w3.org/1999/xlink" xml:space="preserve" xmlns:serif="http://www.serif.com/" style="fill-rule:evenodd;clip-rule:evenodd;stroke-linejoin:round;stroke-miterlimit:2;">
    <g transform="matrix(1,0,0,1,-205.268,-114.546)">
        <g>
            <g transform="matrix(1.08863,0,0,1.08863,-48.5576,-173.795)">
                <text x="317.834px" y="298.57px" style="font-family:'Futura-Medium', 'Futura', sans-serif;font-weight:500;font-size:27.73px;">Durga</text>
                <text x="318.726px" y="318.019px" style="font-family:'Futura-Medium', 'Futura', sans-serif;font-weight:500;font-size:12.635px;">w<tspan x="328.314px 335.304px " y="318.019px 318.019px ">eb</tspan> solutions</text>
            </g>
            <g transform="matrix(0.279001,0,0,0.279001,245.446,144.138)">
                <g transform="matrix(1,0,0,1,-144.009,-106.064)">
                    <clipPath id="_clip1">
                        <rect x="0" y="0" width="288.018" height="212.128"/>
                    </clipPath>
                    <g clip-path="url(#_clip1)">
                        <path id="path6943" d="M45.887,0.008C42.54,0.229 42.169,4.878 38.881,5.488C37.126,5.814 35.713,4.804 34.08,5.248C31.891,5.843 29.855,8.077 29.248,10.379C29.153,10.35 29.059,10.32 29,10.379C28.941,10.438 29.059,10.57 29,10.629C28.882,10.747 28.618,10.511 28.5,10.629C28.441,10.688 28.559,10.82 28.5,10.879C28.382,10.997 28.118,10.761 28,10.879C27.941,10.938 28.059,11.07 28,11.129C27.912,11.217 26.923,11.043 26.75,11.129C26.645,11.182 26.605,11.326 26.5,11.379C26.491,11.384 26.479,11.38 26.469,11.383C26.771,11.104 27.017,10.768 27.119,10.289C24.983,10.794 22.713,13.241 21.84,15.809C22.411,17.332 21.995,17.886 21.6,19.408C23.071,22.119 26.88,21.012 29.039,23.01C27.327,24.977 24.617,25.947 23.039,28.049C21.112,34.442 14.956,36.606 9.84,39.809C7.997,42.507 4.479,43.273 4.561,46.529C4.634,49.453 9.158,53.075 7.439,55.889C5.711,55.421 3.928,54.97 2.881,54.449L2.881,55.648C4.579,55.788 8.147,55.709 7.92,58.529L4.561,58.529C4.551,58.199 4.674,58.002 4.801,57.809C3.878,59.126 0.406,57.895 0,59.729C1.869,59.725 5.335,58.298 8.16,59.248C8.612,61.116 9.402,62.647 10.32,64.049C9.567,63.936 9.685,64.696 9.119,64.77C7.981,70.615 10.782,74.416 13.199,77.488C13.791,77.52 14.357,77.524 14.641,77.248C14.593,77.935 14.609,78.559 15.359,78.449C16.299,78.213 15.192,77.419 15.84,77.01C15.634,78.015 16.913,77.534 17.279,77.969C17.655,77.625 17.469,76.719 18.24,76.77C18.263,77.147 18.209,77.6 18.721,77.488C19.361,75.159 20.708,74.055 22.801,74.609C20.036,75.577 20.801,79.678 22.801,80.85C22.023,83.293 23.118,86.826 24.961,86.609C23.933,85.455 24.524,82.433 24.961,80.85C25.742,86.628 27.285,91.643 31.439,94.049C30.117,94.647 28.917,95.367 27.84,96.209C28.875,97.431 31.441,96.24 32.375,96.014C32.387,96.1 32.407,96.19 32.375,96.254C32.349,96.307 32.276,96.326 32.25,96.379C32.231,96.416 32.25,96.462 32.25,96.504L32.25,96.625C30.277,99.948 28.274,103.974 29.52,108.689C30.503,112.412 33.78,116.046 35.279,118.77C35.047,115.882 34.037,113.769 33.359,111.328C35.562,114.325 35.53,119.556 38.879,121.408C38.041,118.886 36.648,116.921 35.76,114.449L36.959,114.449C34.809,112.081 33.674,107.522 35.109,103.879C35.114,103.878 35.121,103.883 35.125,103.879C35.135,103.869 35.125,103.85 35.125,103.836C35.136,103.809 35.143,103.781 35.154,103.754C35.189,103.761 35.227,103.777 35.25,103.754C35.279,103.724 35.231,103.666 35.25,103.629C35.325,103.479 35.55,103.404 35.625,103.254C35.644,103.217 35.606,103.166 35.625,103.129C35.65,103.079 35.797,102.949 35.904,102.85C35.26,107.082 35.354,112.785 37.92,114.93C38.987,119.486 40.141,124.732 42.238,127.65C42.543,128.074 42.245,129.402 43.439,128.609C41.501,124.709 41.951,117.492 43.68,113.25C43.925,114.282 44.131,115.231 44.305,116.111C44.365,115.837 44.428,115.561 44.5,115.277C44.502,115.27 44.498,115.261 44.5,115.254C44.501,115.251 44.506,115.249 44.508,115.246C44.551,115.075 44.577,114.919 44.625,114.744C44.626,114.795 44.625,114.812 44.625,114.859C44.614,114.959 44.611,115.053 44.602,115.152C44.572,115.184 44.527,115.207 44.508,115.246C44.505,115.257 44.503,115.266 44.5,115.277C44.453,115.462 44.56,115.698 44.5,115.879C44.481,115.935 44.401,115.951 44.375,116.004C44.356,116.041 44.375,116.087 44.375,116.129L44.375,116.498C44.791,118.681 44.987,120.359 45.049,121.631C46.084,125.857 48.356,129.07 49.68,133.17C50.067,134.369 50.525,135.609 51.359,136.771C49.57,128.91 49.375,127.629 49.375,127.629C50.299,129.775 51.048,132.652 51.596,134.851C52.551,134.366 51.729,132.103 52.797,131.732C52.926,133.762 53.192,135.656 54.477,136.531C54.322,135.309 53.32,132.838 54.717,132.213C53.973,136.305 55.459,139.628 57.836,141.332C57.223,138.744 55.03,136.46 55.676,133.412C56.767,133.907 56.456,137.869 57.836,136.531C58.607,138.48 59.683,140.124 61.195,141.332C61.874,140.954 60.654,140.047 61.436,139.652C63.938,142.14 64.628,146.612 63.115,150.691C64.645,149.98 64.758,147.855 65.275,146.131C65.741,149.022 63.522,150.424 63.596,152.131C64.751,152.475 64.659,150.331 65.275,150.931C65.186,152.202 64.244,152.619 64.316,154.051C66.254,152.949 66.005,149.66 67.676,148.291C68.473,150.198 65.078,152.416 66.955,153.812C66.911,152.328 67.303,151.278 67.916,150.451C68.592,153.952 68.895,157.489 69.115,160.771C69.305,163.597 70.013,166.458 70.316,169.412C70.692,173.084 69.774,177.291 70.076,181.172C70.513,186.793 72.815,190.985 69.836,195.092C68.78,193.876 67.646,194.224 65.996,193.652C65.291,194.041 64.283,194.392 64.797,195.332C64.866,195.353 64.909,195.347 64.963,195.353C64.973,195.404 64.981,195.456 65,195.504C65.011,195.531 65.049,195.54 65.063,195.566C65.067,195.574 65.064,195.667 65.063,195.754C65.024,195.741 64.99,195.715 64.953,195.699C64.546,195.452 64.149,195.195 63.84,194.849C63.49,194.824 63.157,194.816 62.84,194.824C61.047,194.867 59.76,195.416 58.762,196.254C58.758,196.255 58.754,196.252 58.75,196.254C58.646,196.357 58.662,196.35 58.68,196.328C58.697,196.306 58.717,196.27 58.625,196.316C58.55,196.354 58.513,196.466 58.438,196.504C58.419,196.513 58.39,196.489 58.375,196.504C58.35,196.529 58.382,196.578 58.375,196.611C58.369,196.617 58.362,196.623 58.355,196.629C58.34,196.626 58.323,196.619 58.313,196.629C58.31,196.632 58.313,196.66 58.313,196.67C56.945,198.053 56.148,200.009 55.199,201.81C50.971,202.362 53.502,210.166 57.359,209.01C57.545,210.664 59.217,210.832 59.76,212.129C61.719,211.638 63.912,211.106 66.24,211.65C66.397,211.105 66.269,210.843 66.105,210.617C66.108,210.62 66.111,210.623 66.115,210.625C66.129,210.632 66.226,210.625 66.246,210.625L66.865,210.625C66.88,210.625 66.9,210.635 66.91,210.625C66.921,210.615 66.9,210.592 66.91,210.582C66.921,210.572 66.94,210.582 66.955,210.582C66.997,210.582 67.151,210.59 67.176,210.582C67.196,210.575 67.2,210.546 67.219,210.537C67.245,210.524 67.288,210.558 67.309,210.537C67.319,210.527 67.298,210.503 67.309,210.492C67.323,210.478 67.382,210.507 67.397,210.492C67.407,210.482 67.386,210.46 67.397,210.449C67.407,210.439 67.429,210.46 67.439,210.449C67.45,210.439 67.429,210.415 67.439,210.404C67.454,210.39 67.515,210.419 67.529,210.404C67.54,210.394 67.529,210.376 67.529,210.361C67.544,210.361 67.559,210.368 67.572,210.361C67.591,210.352 67.599,210.326 67.617,210.316C67.627,210.311 67.68,210.314 67.717,210.316C67.967,211.289 69.812,211.497 70.32,211.41C70.314,211.382 70.304,211.359 70.297,211.332L70.357,211.332C70.372,211.332 70.39,211.342 70.4,211.332C70.411,211.322 70.39,211.299 70.4,211.289C70.411,211.279 70.435,211.299 70.445,211.289C70.456,211.279 70.435,211.255 70.445,211.244C70.456,211.234 70.477,211.251 70.49,211.244C70.509,211.235 70.515,211.21 70.533,211.201C70.551,211.192 70.657,211.21 70.666,211.201C70.676,211.191 70.656,211.167 70.666,211.156C70.676,211.146 70.701,211.167 70.711,211.156C70.721,211.146 70.701,211.122 70.711,211.111C70.721,211.101 70.744,211.122 70.754,211.111C70.764,211.101 70.744,211.079 70.754,211.068C70.775,211.048 70.823,211.089 70.844,211.068C70.854,211.058 70.833,211.034 70.844,211.023C70.854,211.013 70.876,211.034 70.887,211.023C70.897,211.013 70.876,210.989 70.887,210.979C70.897,210.968 70.921,210.989 70.932,210.979C70.942,210.968 70.921,210.946 70.932,210.936C70.942,210.925 70.966,210.946 70.977,210.936C70.997,210.915 70.956,210.866 70.977,210.846C70.987,210.835 71.009,210.856 71.02,210.846C71.03,210.835 71.009,210.813 71.02,210.803C71.03,210.792 71.054,210.813 71.064,210.803C71.077,210.791 71.052,210.649 71.064,210.625C71.074,210.606 71.098,210.601 71.107,210.582C71.114,210.569 71.107,210.552 71.107,210.537L71.107,210.016C71.253,209.876 71.429,209.746 71.756,209.736C71.854,210.314 71.318,210.258 71.516,210.936C74.04,211.003 75.837,209.697 78.717,210.215C79.48,208.978 81.243,208.741 82.076,207.574C81.764,203.936 83.349,202.194 83.898,199.418C83.901,199.415 83.905,199.413 83.906,199.41C83.911,199.4 83.909,199.389 83.906,199.377C83.908,199.367 83.91,199.357 83.912,199.347C83.92,199.347 83.932,199.353 83.938,199.347C83.945,199.34 83.938,199.327 83.938,199.316L83.938,199.222C83.762,198.824 84.023,199.072 84.236,198.693C86.468,194.824 87.242,190.208 87.356,185.013C87.367,184.51 86.831,183.899 86.877,183.332C87.003,181.789 88.301,179.275 88.797,177.094C90.029,171.676 91.017,165.025 91.676,159.094C93.078,156.016 95.114,153.57 96.477,150.453C96.453,151.193 95.655,152.885 96.955,152.853C97.133,151.751 97.041,150.378 97.436,149.492C99.859,152.421 96.084,153.18 95.275,155.972C93.976,160.457 93.417,163.615 96.717,167.011C97.401,166.959 96.595,166.409 96.709,166.166C96.754,166.19 96.834,166.127 96.873,166.166C96.915,166.207 96.831,166.302 96.873,166.344C96.915,166.385 96.998,166.317 97.051,166.344C97.053,166.344 97.053,166.347 97.055,166.348C97.261,166.969 97.394,167.664 97.436,168.451C102.73,171.238 107.549,174.501 112.076,178.053C112.099,177.676 112.045,177.22 112.557,177.332C116.62,178.228 124.437,178.232 126.717,176.611C126.593,176.576 126.458,176.557 126.328,176.531C126.337,176.524 126.347,176.517 126.352,176.508C126.359,176.494 126.345,176.478 126.352,176.465C126.361,176.446 126.387,176.438 126.396,176.42C126.403,176.407 126.391,176.391 126.396,176.377C126.407,176.345 126.429,176.318 126.439,176.287C126.444,176.273 126.432,176.257 126.439,176.244C126.448,176.225 126.475,176.218 126.484,176.199C126.494,176.18 126.489,176.153 126.484,176.127C126.643,176.128 126.792,176.138 126.961,176.129C129.195,173.939 132.219,172.017 132.961,167.73C132.829,167.724 132.751,167.666 132.672,167.607C132.673,167.574 132.678,167.504 132.672,167.492C132.663,167.473 132.636,167.466 132.627,167.447C132.614,167.421 132.648,167.38 132.627,167.359C132.617,167.349 132.594,167.37 132.584,167.359C132.574,167.349 132.591,167.329 132.584,167.316C132.575,167.298 132.548,167.29 132.539,167.271C132.527,167.248 132.551,167.207 132.539,167.183C132.53,167.165 132.503,167.157 132.494,167.139C132.479,167.108 132.51,166.933 132.494,166.918C132.484,166.907 132.462,166.928 132.451,166.918C132.429,166.896 132.473,166.807 132.451,166.785C132.441,166.775 132.417,166.795 132.406,166.785C132.385,166.764 132.427,166.718 132.406,166.697C132.396,166.687 132.374,166.708 132.363,166.697C132.361,166.695 132.364,166.676 132.363,166.668C132.479,166.703 132.551,166.721 132.717,166.773C132.264,165.625 132.169,164.122 130.797,163.894C130.512,164.683 129.32,164.3 129.115,163.654C129.528,163.667 129.731,163.47 129.836,163.174C128.073,160.608 121.51,160.814 118.797,162.453C117.06,161.87 115.926,160.683 113.275,161.014C109.826,155.522 120.962,150.502 121.916,145.894C121.722,145.884 121.543,145.862 121.375,145.826C121.373,145.802 121.375,145.778 121.375,145.754C121.417,145.754 121.47,145.783 121.5,145.754C121.529,145.724 121.47,145.658 121.5,145.629C121.559,145.57 121.675,145.666 121.75,145.629C121.774,145.617 121.866,145.515 121.934,145.445C125.169,146.289 129.977,143.231 134.402,143.972C134.816,143.827 134.384,142.835 134.883,142.773C137.373,143.807 140.882,142.824 143.043,142.053C142.876,141.581 141.705,142.111 141.604,141.572C142.569,141.407 142.974,141.801 143.764,141.812C146.533,139.306 152.334,139.649 156.004,139.172C156.075,139.821 155.001,140.544 155.764,141.092C156.053,140.175 157.069,138.726 157.924,139.172C157.724,139.773 157.263,140.115 157.201,140.853C157.531,145.403 158.801,149.014 160.562,152.133C161.009,152.166 161.363,152.289 161.521,152.611C163.554,159.937 166.554,166.3 174.242,167.971C176.565,172.929 181.297,175.478 185.764,178.291C185.642,180.573 187.911,180.461 188.883,181.65C189.337,187.54 189.141,195.655 182.162,195.57C181.623,194.989 181.063,194.429 180.482,193.89C178.618,193.866 177.219,194.308 175.682,194.611C175.453,195.058 176.401,195.412 175.682,195.57C172.168,193.747 167.622,197.446 168.963,201.092C167.652,201.646 166.927,202.987 167.762,204.451C167.07,204.799 166.03,204.798 166.082,205.89C166.585,206.474 167.148,205.679 167.521,206.131C167.64,207.771 169.233,207.936 170.4,208.529C170.964,208.453 170.544,207.392 171.361,207.57C170.859,208.1 171.174,209.169 171.602,209.49C172.299,209.506 172.95,209.476 173.285,209.129C173.315,209.127 173.348,209.115 173.375,209.129C173.428,209.155 173.447,209.227 173.5,209.254C173.574,209.291 173.691,209.195 173.75,209.254C173.779,209.283 173.72,209.349 173.75,209.379C173.768,209.397 173.885,209.388 174.004,209.379C173.721,209.54 173.528,209.848 173.521,210.449C174.993,210.593 179.034,211.608 180.947,209.504C180.959,209.504 180.975,209.503 180.99,209.504C181.469,209.654 181.745,210.166 182.16,209.73C182.135,209.543 182.089,209.396 182.041,209.254L182.75,209.254C182.781,209.254 182.813,209.257 182.842,209.254C182.855,209.33 182.872,209.394 182.881,209.49C185.885,209.374 188.65,209.019 191.52,208.769C191.63,208.538 191.767,208.334 191.904,208.129C191.998,208.129 192.123,208.131 192.125,208.129C192.155,208.099 192.096,208.033 192.125,208.004C192.167,207.962 192.333,208.045 192.375,208.004C192.405,207.974 192.346,207.908 192.375,207.879C192.405,207.849 192.463,207.897 192.5,207.879C193.02,207.619 192.366,207.888 192.625,207.629C192.655,207.599 192.721,207.658 192.75,207.629C192.78,207.599 192.721,207.533 192.75,207.504C192.78,207.474 192.846,207.533 192.875,207.504C192.934,207.445 192.816,207.313 192.875,207.254C192.905,207.224 192.971,207.283 193,207.254C193.059,207.195 192.941,207.063 193,207.004C193.003,207.001 193.01,207.005 193.014,207.004C193.123,207.225 193.291,207.388 193.68,207.33C193.708,206.856 193.831,206.512 193.977,206.129L194.25,206.129C194.284,206.129 194.317,206.132 194.352,206.129C194.285,206.207 194.227,206.293 194.154,206.365C194.338,207.141 194.821,207.62 195.596,207.805C195.971,207.3 196.436,206.886 197.035,206.605C197.019,205.122 197.284,202.953 196.315,203.724C196.06,202.829 197.215,203.345 197.035,202.525C199.344,196.115 204.836,192.887 207.354,186.685C208.848,184.979 209.75,182.681 211.193,180.924C211.037,178.946 211.633,177.656 210.955,176.363C205.68,172.618 200.904,165.489 197.516,159.324C197.034,158.446 196.3,157.204 196.076,156.203C196.004,155.888 196.57,155.778 196.555,155.484C196.515,154.656 195.576,153.641 196.076,152.844C196.623,152.911 196.976,152.785 197.035,152.363C196.679,152.159 196.521,151.761 196.557,151.164C199.656,148.102 202.968,145.255 205.436,141.564C209.037,145.003 213.574,147.507 219.117,149.004C219.753,150.049 220.47,151.009 221.996,151.162C224.916,153.604 226.966,157.25 230.156,159.562C233.782,162.189 238.611,163.348 242.637,165.803C242.989,165.873 243.43,165.549 243.738,165.451C243.75,165.455 243.768,165.45 243.775,165.459C243.817,165.501 243.734,165.593 243.775,165.635C243.837,165.696 243.954,165.626 244.045,165.615C243.936,165.879 243.536,165.851 243.356,166.043C245.372,169.548 249.114,171.325 251.996,173.963C254.029,175.953 253.221,178.959 254.395,181.162C254.896,182.103 256.191,182.069 257.275,183.082C259.202,184.882 258.93,187.831 261.115,188.604C261.815,190.146 263.28,192.196 262.555,194.363C261.867,193.932 261.433,193.244 260.154,193.402C259.729,193.677 259.061,194.232 259.676,194.844C259.891,194.931 260.027,194.939 260.125,194.908L260.125,195.004C260.167,195.004 260.125,195.171 260.125,195.129L260.125,195.629C260.167,195.629 260.125,195.796 260.125,195.754L260.125,195.629C260.042,195.629 260.184,195.82 260.125,195.879C260.096,195.908 260.03,195.849 260,195.879C259.995,195.884 260.001,195.892 260,195.898C259.703,195.683 259.37,195.595 259.016,195.625C257.449,195.755 255.516,197.942 254.879,199.172C254.893,200.039 255.478,200.334 255.6,201.092C254.621,201.793 253.769,202.62 253.92,204.451C254.012,204.523 254.127,204.571 254.25,204.611C254.248,204.792 254.242,204.987 254.25,205.004C254.276,205.057 254.349,205.076 254.375,205.129C254.394,205.166 254.356,205.217 254.375,205.254C254.401,205.307 254.474,205.326 254.5,205.379C254.537,205.453 254.441,205.57 254.5,205.629C254.53,205.658 254.596,205.599 254.625,205.629C254.633,205.637 254.622,205.665 254.625,205.68C254.112,206.236 253.909,206.933 254.16,207.811C255.95,208.666 258.415,210.042 260.604,209.732C260.611,209.739 260.616,209.749 260.625,209.754C260.663,209.773 260.944,209.754 261,209.754L261.75,209.754C261.75,209.712 261.917,209.754 261.875,209.754C261.928,209.727 261.947,209.655 262,209.629C262.025,209.617 262.054,209.625 262.082,209.629C262.083,209.664 262.078,209.695 262.08,209.73C265.441,209.172 266.832,207.453 269.76,208.051C269.861,207.592 269.847,207.018 270.48,207.09C270.586,207.544 270.154,208.535 270.961,208.289C271.32,207.262 272.302,206.861 272.705,205.879L272.875,205.879C272.917,205.879 272.971,205.908 273,205.879C273.03,205.849 272.971,205.783 273,205.754C273.047,205.707 273.182,205.748 273.281,205.754C273.099,206.128 273.026,206.562 273.115,207.088C274.388,207.161 273.839,205.412 275.035,205.408C274.998,206.004 274.99,206.572 275.514,206.607C276.696,204.937 278.739,204.808 279.115,202.768C279.787,199.112 274.633,195.839 276.234,192.207C274.376,191.265 275.378,187.464 274.314,185.729C275.614,178.496 272.76,170.704 267.549,168.902C267.522,168.872 267.499,168.836 267.463,168.818C267.41,168.792 267.346,168.818 267.287,168.818C267.228,168.759 267.184,168.678 267.109,168.641C267.057,168.614 266.986,168.667 266.934,168.641C266.724,168.536 266.616,168.227 266.408,168.117C264.376,165.686 260.926,163.807 260.395,160.768C257.848,159.476 257.271,156.213 255.356,154.287C252.843,142.946 248.32,134.765 244.555,125.008C244.635,117.618 239.863,112.287 237.596,105.809C242.222,106.857 247.029,106.298 251.756,107.728C255.051,107.35 258.788,107.471 261.836,107.488C262.542,106.685 263.67,106.496 264.715,106.287C271.049,105.02 276.337,102.416 281.275,99.328C282.952,97.392 284.381,93.97 286.074,92.848C286.451,89.829 287.845,86.755 287.996,83.248C288.572,69.89 275.215,58.02 264.234,55.408C261.041,54.648 257.931,54.772 255.356,52.527C253.564,52.64 253.123,52.215 251.516,51.809C251.421,52.222 251.872,52.422 251.516,52.527C250.302,51.589 247.338,52.128 247.436,51.088C245.653,51.767 242.419,50.229 241.195,51.088C241.341,51.503 242.333,51.069 242.395,51.568C237.674,52.366 234.284,54.498 231.115,56.848C231.639,56.869 232.669,56.19 232.797,56.607C230.133,58.823 227.323,60.895 224.877,63.328C225.332,63.314 225.869,63.126 226.451,62.877C226.457,62.896 226.463,62.916 226.451,62.928C226.43,62.949 226.382,62.907 226.361,62.928C226.341,62.949 226.382,62.997 226.361,63.018C226.32,63.059 226.227,62.976 226.186,63.018C226.165,63.038 226.206,63.085 226.186,63.105C226.165,63.126 226.119,63.085 226.098,63.105C226.077,63.126 226.119,63.172 226.098,63.193C226.077,63.214 226.029,63.172 226.008,63.193C225.987,63.214 226.029,63.26 226.008,63.281C225.966,63.323 225.874,63.24 225.832,63.281C225.811,63.302 225.845,63.345 225.832,63.371C225.814,63.408 225.761,63.422 225.742,63.459C225.729,63.485 225.742,63.517 225.742,63.547L225.742,63.965C224.591,64.169 223.556,64.489 223.44,65.728C223.85,65.523 224.377,65.32 224.947,65.139C224.978,65.129 225.004,65.117 225.035,65.107C225.038,65.119 225.042,65.131 225.035,65.139C225.015,65.159 224.968,65.118 224.947,65.139C224.927,65.159 224.961,65.2 224.947,65.227C224.929,65.264 224.878,65.277 224.86,65.314C224.833,65.367 224.901,65.45 224.86,65.492C224.839,65.513 224.792,65.471 224.772,65.492C224.751,65.513 224.792,65.559 224.772,65.58C224.751,65.6 224.705,65.562 224.684,65.58C224.681,65.618 224.671,65.668 224.682,65.668C224.711,65.668 224.661,65.601 224.682,65.58L224.684,65.58C224.689,65.524 224.682,65.493 224.594,65.668C224.576,65.703 224.612,65.915 224.594,65.934C224.573,65.954 224.527,65.913 224.506,65.934C224.476,65.963 224.47,65.982 224.479,65.996C223.4,66.062 222.818,66.164 222.481,67.408C223.306,66.982 224.417,66.842 224.848,66.021L225.203,66.021C225.319,66.444 225.297,66.589 225.119,67.17C223.943,67.754 222.163,67.733 221.76,69.09C224.483,67.967 225.879,66.706 229.68,67.648C229.287,68.742 230.844,68.408 230.158,69.09C243.63,72.844 247.151,61.591 259.199,61.648C260.234,60.722 262.548,60.868 264.479,61.408C271.139,63.271 281.078,72.614 282,81.568C282.527,86.692 279.34,91.305 276.721,93.328C274.455,95.078 270.69,96.689 267.84,97.17C266.252,97.438 264.262,97.125 262.561,97.408C260.435,97.762 258.381,98.226 255.84,97.889C248.058,96.858 242.595,92.326 236.641,88.769C225.697,82.231 214.43,75.666 203.76,71.248L203.76,70.529C198.609,70.669 193.872,68.52 188.881,67.648C181.261,66.316 173.413,65.842 164.401,66.689C157.741,67.315 149.651,68.209 143.039,68.609C138.074,68.909 130.362,69.089 127.44,66.449C127.3,66.322 127.851,65.986 127.68,65.728C126.554,64.03 124.195,63.215 121.68,63.09C122.505,62.562 124.135,62.934 125.039,63.09C125.082,61.767 123.079,62.491 122.401,61.889C122.936,61.304 124.144,59.226 122.641,58.769C122.907,59.436 123.078,60.8 122.16,60.93C123.228,57.792 119.589,56.495 119.52,54.449C119.115,53.973 118.418,53.79 117.84,53.488C117.26,50.491 112.082,50.187 110.881,52.769C112.52,51.116 116.61,51.601 116.881,53.488C116.102,53.349 115.762,53.651 115.199,53.728C114.231,51.539 111.33,52.984 109.68,53.488C109.555,53.133 109.324,52.884 109.199,52.529C111.618,51.597 115.644,48.308 117.6,51.809C116.694,45.573 109.644,52.653 106.08,52.769C105.955,52.414 105.725,52.164 105.6,51.809C106.147,51.479 106.503,52.428 106.561,51.809C106.202,51.528 105.578,51.511 105.36,51.09C106.169,51.171 107.78,51.697 108.481,51.09C107.004,50.484 110.279,50.93 109.92,49.889C106.992,50.574 102.481,50.689 102.24,47.969C103.721,49.66 109.171,50.671 110.641,48.209C108.552,48.799 105.304,49.507 103.68,47.969C106.591,49.037 108.693,47.268 111.36,46.769C108.129,46.894 102.646,49.733 102.24,44.369C102.717,44.372 102.544,45.025 103.199,44.85C104.22,42.321 106.396,40.99 105.6,38.129C104.952,35.8 102.663,35.444 100.801,34.049C100.94,34.035 101.058,34.001 101.19,33.98L101.272,33.98C101.279,33.98 101.286,33.983 101.293,33.98C101.309,33.975 101.322,33.963 101.338,33.959C101.495,33.92 101.225,34.026 101.447,33.937C101.45,33.936 101.452,33.935 101.455,33.934C102.834,33.415 103.81,32.649 104.366,31.693C105.341,31.37 106.251,31.524 107.039,33.09C107.094,32.154 106.525,31.845 106.321,31.17C103.976,29.873 102.694,32.184 100.801,32.369C94.378,32.997 96.965,25.998 93.6,21.809C94.023,22.018 94.344,22.612 94.561,21.809C93.105,18.897 91.009,16.625 87.858,15.41C87.853,15.398 87.859,15.424 87.844,15.379C87.821,15.31 87.884,15.387 87.813,15.316C87.808,15.307 87.818,15.294 87.813,15.285C87.8,15.259 87.764,15.249 87.75,15.223C87.746,15.213 87.756,15.2 87.75,15.191C87.734,15.167 87.704,15.153 87.688,15.129C87.682,15.12 87.693,15.107 87.688,15.098C87.681,15.084 87.663,15.08 87.657,15.066C87.652,15.057 87.661,15.044 87.657,15.035C87.592,14.905 87.659,15.069 87.594,15.004C87.587,14.996 87.599,14.982 87.594,14.973C87.588,14.959 87.569,14.955 87.563,14.941C87.562,14.94 87.563,14.939 87.563,14.937C88.062,15.083 88.508,15.213 88.801,15.328C88.478,13.331 85.649,13.843 84.241,12.93C84.868,12.998 85.272,12.841 85.2,12.209C84.211,11.936 82.468,12.78 80.641,12.449C78.728,11.562 78.792,8.699 76.801,7.889C75.019,3.091 65.753,1.402 61.504,4.813C61.513,4.746 61.544,4.673 61.5,4.629C61.441,4.57 61.325,4.666 61.25,4.629C61.145,4.576 61.105,4.432 61,4.379C60.93,4.344 60.825,4.419 60.764,4.379C62.134,3.813 63.382,3.127 64.801,2.609C64.561,2.069 63.491,3.128 63.119,2.369C63.684,2.071 64.847,1.578 64.32,0.93C63.079,2.082 61.554,2.974 59.875,3.402C59.877,3.394 59.881,3.384 59.875,3.379C59.86,3.364 59.831,3.388 59.813,3.379C59.786,3.366 59.771,3.337 59.75,3.316C59.729,3.296 59.714,3.267 59.688,3.254C59.669,3.245 59.64,3.269 59.625,3.254C59.61,3.239 59.64,3.206 59.625,3.191C59.61,3.177 59.581,3.201 59.563,3.191C59.538,3.179 59.527,3.148 59.504,3.133C60.794,3.07 61.894,2.455 62.641,0.689C61.084,1.129 59.688,2.331 57.84,2.129C56.944,2.031 56.49,1.246 55.68,0.93C54.304,0.392 52.958,0.139 51.688,0.156C49.033,0.192 46.719,1.421 45.137,3.691L44.875,3.691C44.854,3.691 44.831,3.682 44.813,3.691C44.786,3.705 44.776,3.741 44.75,3.754C44.713,3.773 44.662,3.735 44.625,3.754C45.507,2.489 46.523,1.36 47.52,0.209C46.903,0.035 46.365,-0.024 45.887,0.008ZM261.875,209.754L261.75,209.754C261.75,209.796 261.838,209.773 261.875,209.754ZM260.125,195.129L260.125,195.004C260.083,195.004 260.125,195.087 260.125,195.129ZM45.049,121.631C44.803,120.629 44.626,119.57 44.549,118.428C44.53,118.413 44.51,118.4 44.5,118.379C44.463,118.304 44.559,118.188 44.5,118.129C44.471,118.099 44.404,118.158 44.375,118.129C44.346,118.099 44.375,118.046 44.375,118.004L44.375,116.498C44.35,116.364 44.332,116.249 44.305,116.111C42.542,124.062 45.34,127.63 45.049,121.631L45.049,121.631ZM46,3.492C46,3.496 46.003,3.501 46,3.504C45.999,3.505 45.984,3.503 45.98,3.504C45.987,3.5 45.994,3.496 46,3.492ZM8.16,60.449C5.555,60.723 3.002,61.052 2.16,63.09C4.111,62.161 6.194,61.363 8.16,60.449ZM225.301,65.025C225.302,65.034 225.307,65.045 225.301,65.051C225.287,65.064 225.25,65.055 225.219,65.051C225.247,65.043 225.273,65.033 225.301,65.025ZM30.961,101.49C30.908,104.607 31.791,107.94 32.16,111.33C30.833,109.04 29.819,104.76 30.961,101.49ZM256.26,200.004C256.297,200.012 256.348,199.977 256.375,200.004C256.396,200.025 256.38,200.06 256.375,200.092C256.358,200.105 256.334,200.118 256.318,200.131C256.306,200.084 256.279,200.047 256.26,200.004L256.26,200.004Z" style="fill:rgb(48,103,255);"/>
                    </g>
                </g>
            </g>
        </g>
    </g>
</svg>
