<?xml version="1.0" encoding="UTF-8" standalone="no"?><!DOCTYPE svg PUBLIC "-//W3C//DTD SVG 1.1//EN" "http://www.w3.org/Graphics/SVG/1.1/DTD/svg11.dtd"><svg width="100%" height="100%" viewBox="0 0 81 60" version="1.1" xmlns="http://www.w3.org/2000/svg" xmlns:xlink="http://www.w3.org/1999/xlink" xml:space="preserve" xmlns:serif="http://www.serif.com/" style="fill-rule:evenodd;clip-rule:evenodd;stroke-linejoin:round;stroke-miterlimit:2;"><clipPath id="_clip1"><rect x="0" y="0" width="80.357" height="59.184"/></clipPath><g clip-path="url(#_clip1)"><path id="path6943" d="M12.802,0.002c-0.933,0.062 -1.037,1.359 -1.954,1.529c-0.49,0.091 -0.884,-0.191 -1.34,-0.067c-0.61,0.166 -1.178,0.789 -1.348,1.432c-0.026,-0.008 -0.053,-0.017 -0.069,-0c-0.016,0.016 0.016,0.053 0,0.069c-0.033,0.033 -0.107,-0.032 -0.139,0c-0.017,0.017 0.016,0.054 -0,0.07c-0.033,0.033 -0.107,-0.033 -0.14,0c-0.016,0.017 0.016,0.054 0,0.07c-0.024,0.024 -0.301,-0.024 -0.349,-0c-0.029,0.015 -0.04,0.055 -0.069,0.07c-0.003,0.001 -0.006,0 -0.009,0.001c0.084,-0.078 0.153,-0.172 0.181,-0.305c-0.596,0.141 -1.229,0.823 -1.473,1.54c0.16,0.425 0.044,0.579 -0.067,1.004c0.411,0.756 1.474,0.447 2.076,1.005c-0.478,0.549 -1.234,0.819 -1.674,1.406c-0.538,1.783 -2.255,2.387 -3.683,3.281c-0.514,0.752 -1.495,0.966 -1.473,1.875c0.021,0.816 1.283,1.826 0.804,2.611c-0.482,-0.131 -0.98,-0.256 -1.272,-0.402l-0,0.335c0.474,0.039 1.469,0.017 1.406,0.804l-0.938,-0c-0.002,-0.092 0.032,-0.147 0.067,-0.201c-0.257,0.367 -1.226,0.024 -1.339,0.535c0.521,-0.001 1.489,-0.399 2.277,-0.134c0.126,0.521 0.346,0.949 0.602,1.34c-0.21,-0.032 -0.177,0.18 -0.335,0.201c-0.317,1.631 0.464,2.691 1.139,3.548c0.165,0.009 0.323,0.01 0.402,-0.067c-0.014,0.192 -0.009,0.366 0.2,0.335c0.263,-0.065 -0.046,-0.287 0.134,-0.401c-0.057,0.28 0.3,0.146 0.402,0.267c0.105,-0.096 0.053,-0.348 0.268,-0.334c0.006,0.105 -0.009,0.232 0.134,0.2c0.179,-0.649 0.555,-0.957 1.138,-0.803c-0.771,0.27 -0.558,1.414 0,1.741c-0.217,0.682 0.089,1.668 0.603,1.607c-0.287,-0.322 -0.122,-1.165 0,-1.607c0.218,1.612 0.649,3.011 1.808,3.683c-0.369,0.167 -0.704,0.368 -1.005,0.602c0.289,0.342 1.005,0.009 1.266,-0.054c0.003,0.024 0.009,0.049 -0,0.067c-0.008,0.015 -0.028,0.02 -0.035,0.035c-0.005,0.01 -0,0.023 -0,0.035l-0,0.034c-0.551,0.927 -1.109,2.05 -0.762,3.366c0.274,1.038 1.189,2.052 1.607,2.812c-0.065,-0.806 -0.347,-1.395 -0.536,-2.076c0.615,0.836 0.606,2.295 1.54,2.812c-0.234,-0.704 -0.622,-1.252 -0.87,-1.941l0.335,-0c-0.6,-0.661 -0.917,-1.933 -0.516,-2.95c0.001,0 0.003,0.001 0.004,0c0.003,-0.002 -0,-0.008 -0,-0.012c0.003,-0.007 0.005,-0.015 0.008,-0.023c0.01,0.002 0.021,0.007 0.027,0c0.008,-0.008 -0.005,-0.024 -0,-0.034c0.021,-0.042 0.084,-0.063 0.104,-0.105c0.006,-0.01 -0.005,-0.024 0,-0.035c0.007,-0.014 0.049,-0.05 0.078,-0.078c-0.179,1.181 -0.153,2.772 0.563,3.371c0.297,1.271 0.619,2.735 1.205,3.549c0.085,0.118 0.002,0.488 0.335,0.267c-0.541,-1.088 -0.416,-3.102 0.067,-4.285c0.068,0.288 0.126,0.553 0.174,0.798c0.017,-0.076 0.034,-0.153 0.055,-0.232c0,-0.002 -0.001,-0.005 -0,-0.007c-0,-0.001 0.001,-0.001 0.002,-0.002c0.012,-0.048 0.019,-0.092 0.032,-0.14c0.001,0.014 0,0.019 0,0.032c-0.003,0.028 -0.004,0.054 -0.006,0.082c-0.008,0.009 -0.021,0.015 -0.026,0.026c-0.001,0.003 -0.002,0.006 -0.002,0.009c-0.014,0.051 0.016,0.117 -0,0.167c-0.006,0.016 -0.028,0.021 -0.035,0.035c-0.006,0.011 -0,0.023 -0,0.035l-0,0.103c0.116,0.609 0.17,1.077 0.188,1.432c0.289,1.179 0.922,2.076 1.292,3.22c0.108,0.334 0.236,0.68 0.468,1.004c-0.499,-2.193 -0.553,-2.55 -0.553,-2.55c0.258,0.598 0.466,1.401 0.619,2.015c0.267,-0.136 0.037,-0.767 0.335,-0.871c0.036,0.567 0.111,1.095 0.469,1.339c-0.043,-0.341 -0.323,-1.03 0.067,-1.204c-0.208,1.141 0.207,2.068 0.87,2.544c-0.171,-0.722 -0.783,-1.359 -0.602,-2.21c0.304,0.138 0.217,1.244 0.602,0.87c0.215,0.544 0.516,1.003 0.938,1.34c0.189,-0.106 -0.152,-0.359 0.067,-0.469c0.698,0.694 0.89,1.942 0.468,3.08c0.427,-0.198 0.459,-0.791 0.603,-1.272c0.13,0.806 -0.489,1.197 -0.469,1.674c0.323,0.096 0.297,-0.502 0.469,-0.335c-0.025,0.355 -0.288,0.471 -0.268,0.87c0.541,-0.307 0.471,-1.225 0.938,-1.607c0.222,0.532 -0.725,1.151 -0.201,1.541c-0.013,-0.414 0.097,-0.707 0.268,-0.938c0.188,0.977 0.273,1.964 0.334,2.879c0.053,0.789 0.251,1.587 0.335,2.411c0.105,1.025 -0.151,2.198 -0.067,3.281c0.122,1.568 0.764,2.738 -0.067,3.884c-0.294,-0.339 -0.611,-0.242 -1.071,-0.402c-0.197,0.109 -0.478,0.207 -0.335,0.469c0.02,0.006 0.032,0.004 0.047,0.006c0.003,0.014 0.005,0.028 0.01,0.042c0.003,0.007 0.014,0.01 0.018,0.017c0.001,0.003 -0,0.028 -0,0.053c-0.011,-0.004 -0.021,-0.011 -0.031,-0.016c-0.114,-0.069 -0.224,-0.14 -0.311,-0.237c-0.097,-0.007 -0.19,-0.009 -0.279,-0.007c-0.5,0.012 -0.859,0.165 -1.137,0.399c-0.001,0 -0.003,-0 -0.004,0c-0.029,0.029 -0.024,0.027 -0.019,0.021c0.005,-0.006 0.01,-0.016 -0.016,-0.003c-0.02,0.01 -0.031,0.041 -0.052,0.052c-0.005,0.002 -0.013,-0.004 -0.017,-0c-0.007,0.007 0.002,0.021 -0,0.03c-0.002,0.001 -0.004,0.003 -0.006,0.005c-0.004,-0.001 -0.009,-0.003 -0.012,-0c-0.001,0.001 0.001,0.008 0,0.011c-0.381,0.386 -0.604,0.932 -0.868,1.434c-1.18,0.154 -0.474,2.332 0.602,2.009c0.052,0.461 0.519,0.508 0.67,0.87c0.547,-0.137 1.159,-0.285 1.808,-0.133c0.044,-0.152 0.008,-0.226 -0.037,-0.289c0,0.001 0.001,0.002 0.002,0.003c0.004,0.002 0.031,-0 0.037,-0l0.173,-0c0.004,-0 0.009,0.003 0.012,-0c0.003,-0.003 -0.003,-0.009 0,-0.012c0.003,-0.003 0.008,-0 0.013,-0c0.011,-0 0.054,0.002 0.061,-0c0.006,-0.002 0.007,-0.01 0.012,-0.013c0.007,-0.004 0.019,0.006 0.025,0c0.003,-0.003 -0.003,-0.009 0,-0.012c0.004,-0.004 0.021,0.004 0.025,-0c0.003,-0.003 -0.003,-0.009 -0,-0.012c0.003,-0.003 0.009,0.003 0.012,-0c0.003,-0.003 -0.003,-0.01 -0,-0.013c0.004,-0.004 0.021,0.004 0.025,0c0.003,-0.003 -0,-0.008 -0,-0.012c0.004,0 0.008,0.002 0.012,0c0.005,-0.002 0.007,-0.01 0.012,-0.012c0.003,-0.002 0.018,-0.001 0.028,-0c0.07,0.271 0.585,0.329 0.726,0.305c-0.001,-0.008 -0.004,-0.015 -0.006,-0.022l0.017,-0c0.004,-0 0.009,0.003 0.012,-0c0.003,-0.003 -0.003,-0.009 -0,-0.012c0.003,-0.003 0.009,0.003 0.012,-0c0.003,-0.003 -0.003,-0.01 0,-0.013c0.003,-0.002 0.009,0.002 0.013,0c0.005,-0.002 0.007,-0.009 0.012,-0.012c0.005,-0.002 0.034,0.003 0.037,0c0.003,-0.002 -0.003,-0.009 -0,-0.012c0.003,-0.003 0.01,0.003 0.012,-0c0.003,-0.003 -0.002,-0.01 0,-0.013c0.003,-0.003 0.01,0.003 0.012,0c0.003,-0.003 -0.002,-0.009 0,-0.012c0.006,-0.005 0.02,0.006 0.026,0c0.002,-0.003 -0.003,-0.009 -0,-0.012c0.002,-0.003 0.009,0.003 0.012,-0c0.002,-0.003 -0.003,-0.01 -0,-0.013c0.002,-0.003 0.009,0.003 0.012,0c0.003,-0.003 -0.003,-0.009 0,-0.012c0.003,-0.003 0.01,0.003 0.013,0c0.005,-0.005 -0.006,-0.019 -0,-0.025c0.002,-0.003 0.009,0.003 0.012,0c0.002,-0.003 -0.003,-0.009 -0,-0.012c0.002,-0.003 0.009,0.003 0.012,0c0.003,-0.003 -0.003,-0.043 0,-0.049c0.003,-0.006 0.009,-0.007 0.012,-0.012c0.002,-0.004 0,-0.009 0,-0.013l0,-0.145c0.041,-0.039 0.09,-0.076 0.181,-0.078c0.027,0.161 -0.122,0.145 -0.067,0.334c0.704,0.019 1.206,-0.345 2.009,-0.201c0.213,-0.345 0.705,-0.411 0.937,-0.736c-0.087,-1.016 0.355,-1.502 0.509,-2.276c0.001,-0.001 0.002,-0.001 0.002,-0.002c0.001,-0.003 0.001,-0.006 -0,-0.01c0.001,-0.002 0.001,-0.005 0.002,-0.008c0.002,0 0.005,0.002 0.007,0c0.002,-0.002 -0,-0.005 -0,-0.008l-0,-0.027c-0.049,-0.111 0.023,-0.042 0.083,-0.147c0.623,-1.08 0.839,-2.368 0.87,-3.817c0.003,-0.14 -0.146,-0.311 -0.133,-0.469c0.035,-0.431 0.397,-1.132 0.535,-1.741c0.344,-1.511 0.62,-3.367 0.804,-5.022c0.391,-0.858 0.959,-1.541 1.339,-2.41c-0.007,0.206 -0.229,0.678 0.134,0.669c0.049,-0.307 0.023,-0.69 0.134,-0.938c0.676,0.818 -0.377,1.03 -0.603,1.809c-0.362,1.251 -0.519,2.132 0.402,3.079c0.191,-0.014 -0.034,-0.168 -0.002,-0.235c0.012,0.006 0.035,-0.011 0.046,-0c0.011,0.011 -0.012,0.037 -0,0.049c0.011,0.012 0.035,-0.007 0.049,0c0.001,0 0.001,0.001 0.001,0.001c0.058,0.174 0.095,0.367 0.107,0.587c1.477,0.778 2.821,1.688 4.084,2.679c0.007,-0.105 -0.008,-0.232 0.134,-0.201c1.134,0.25 3.315,0.251 3.951,-0.201c-0.034,-0.01 -0.072,-0.015 -0.108,-0.023c0.002,-0.002 0.005,-0.003 0.006,-0.006c0.002,-0.004 -0.002,-0.008 0,-0.012c0.003,-0.005 0.01,-0.007 0.013,-0.013c0.002,-0.003 -0.002,-0.008 -0,-0.012c0.003,-0.008 0.009,-0.016 0.012,-0.025c0.001,-0.004 -0.002,-0.008 -0,-0.012c0.002,-0.005 0.01,-0.007 0.012,-0.012c0.003,-0.006 0.002,-0.013 0,-0.02c0.045,-0 0.086,0.003 0.133,0c0.624,-0.611 1.467,-1.147 1.674,-2.343c-0.036,-0.002 -0.058,-0.018 -0.08,-0.034c-0,-0.01 0.001,-0.029 -0,-0.032c-0.003,-0.006 -0.01,-0.008 -0.013,-0.013c-0.004,-0.007 0.006,-0.019 0,-0.025c-0.003,-0.002 -0.009,0.003 -0.012,0c-0.003,-0.002 0.002,-0.008 0,-0.012c-0.002,-0.005 -0.01,-0.007 -0.012,-0.012c-0.004,-0.007 0.003,-0.018 -0,-0.025c-0.003,-0.005 -0.01,-0.007 -0.013,-0.012c-0.004,-0.009 0.004,-0.057 0,-0.062c-0.003,-0.003 -0.009,0.003 -0.012,0c-0.006,-0.006 0.006,-0.031 0,-0.037c-0.003,-0.003 -0.01,0.003 -0.012,0c-0.006,-0.006 0.005,-0.018 -0,-0.024c-0.003,-0.003 -0.01,0.003 -0.012,-0c-0.001,-0.001 -0,-0.006 -0,-0.008c0.032,0.009 0.052,0.014 0.098,0.029c-0.126,-0.32 -0.153,-0.74 -0.535,-0.803c-0.08,0.22 -0.412,0.113 -0.47,-0.067c0.116,0.003 0.172,-0.052 0.201,-0.134c-0.491,-0.716 -2.323,-0.659 -3.079,-0.201c-0.485,-0.163 -0.801,-0.494 -1.541,-0.402c-0.962,-1.532 2.145,-2.933 2.411,-4.218c-0.054,-0.003 -0.104,-0.009 -0.151,-0.019c-0.001,-0.007 -0,-0.014 -0,-0.02c0.011,-0 0.026,0.008 0.035,-0c0.008,-0.009 -0.009,-0.027 -0,-0.035c0.016,-0.017 0.049,0.01 0.069,-0c0.007,-0.004 0.033,-0.032 0.052,-0.052c0.902,0.236 2.244,-0.617 3.478,-0.41c0.116,-0.041 -0.005,-0.318 0.135,-0.335c0.694,0.288 1.673,0.014 2.276,-0.201c-0.046,-0.132 -0.373,0.016 -0.401,-0.134c0.269,-0.046 0.382,0.064 0.602,0.067c0.773,-0.699 2.391,-0.604 3.415,-0.737c0.02,0.181 -0.28,0.383 -0.067,0.536c0.081,-0.256 0.364,-0.66 0.603,-0.536c-0.056,0.168 -0.184,0.263 -0.202,0.469c0.092,1.27 0.447,2.277 0.938,3.147c0.125,0.009 0.224,0.044 0.268,0.134c0.567,2.044 1.404,3.819 3.549,4.285c0.648,1.383 1.968,2.095 3.214,2.879c-0.034,0.637 0.599,0.606 0.871,0.938c0.126,1.643 0.072,3.907 -1.875,3.883c-0.151,-0.162 -0.307,-0.318 -0.469,-0.468c-0.52,-0.007 -0.911,0.116 -1.34,0.201c-0.063,0.125 0.201,0.223 0,0.267c-0.98,-0.508 -2.248,0.524 -1.874,1.541c-0.366,0.154 -0.568,0.529 -0.335,0.937c-0.193,0.097 -0.483,0.097 -0.469,0.402c0.14,0.163 0.298,-0.059 0.402,0.067c0.033,0.457 0.477,0.503 0.803,0.669c0.157,-0.021 0.04,-0.317 0.268,-0.268c-0.14,0.148 -0.052,0.446 0.067,0.536c0.195,0.005 0.376,-0.004 0.47,-0.101c0.008,-0 0.017,-0.004 0.025,0c0.015,0.008 0.02,0.028 0.035,0.035c0.021,0.011 0.053,-0.016 0.069,0c0.009,0.008 -0.008,0.027 0,0.035c0.006,0.005 0.038,0.002 0.071,-0c-0.079,0.045 -0.132,0.131 -0.134,0.299c0.41,0.04 1.538,0.323 2.072,-0.264c0.003,-0 0.007,-0 0.012,-0c0.133,0.042 0.21,0.185 0.326,0.063c-0.007,-0.052 -0.02,-0.093 -0.033,-0.133l0.198,0c0.008,0 0.017,0.001 0.025,0c0.004,0.021 0.008,0.039 0.011,0.066c0.838,-0.032 1.61,-0.131 2.41,-0.201c0.031,-0.065 0.069,-0.122 0.108,-0.179c0.026,0 0.061,0.001 0.061,0c0.008,-0.008 -0.008,-0.026 0,-0.035c0.012,-0.011 0.058,0.012 0.07,0c0.008,-0.008 -0.008,-0.026 -0,-0.035c0.008,-0.008 0.024,0.006 0.035,0c0.145,-0.072 -0.037,0.003 0.035,-0.069c0.008,-0.009 0.026,0.008 0.035,-0c0.008,-0.009 -0.009,-0.027 -0,-0.035c0.008,-0.008 0.026,0.008 0.034,-0c0.017,-0.017 -0.016,-0.053 0,-0.07c0.009,-0.008 0.027,0.008 0.035,0c0.017,-0.016 -0.016,-0.053 0,-0.07c0.001,-0 0.003,0.001 0.004,0c0.031,0.062 0.077,0.108 0.186,0.091c0.008,-0.132 0.042,-0.228 0.083,-0.335l0.076,0c0.009,0 0.019,0.001 0.028,0c-0.018,0.022 -0.034,0.046 -0.055,0.066c0.052,0.217 0.186,0.35 0.403,0.402c0.104,-0.141 0.234,-0.256 0.401,-0.335c-0.004,-0.414 0.069,-1.019 -0.201,-0.804c-0.071,-0.249 0.251,-0.105 0.201,-0.334c0.644,-1.789 2.176,-2.689 2.879,-4.42c0.417,-0.475 0.669,-1.117 1.071,-1.607c-0.043,-0.552 0.123,-0.912 -0.066,-1.272c-1.472,-1.045 -2.805,-3.034 -3.75,-4.754c-0.134,-0.245 -0.339,-0.592 -0.401,-0.871c-0.021,-0.088 0.137,-0.119 0.133,-0.201c-0.011,-0.231 -0.273,-0.514 -0.133,-0.736c0.152,0.018 0.251,-0.017 0.267,-0.134c-0.099,-0.057 -0.143,-0.168 -0.133,-0.335c0.864,-0.854 1.788,-1.649 2.477,-2.678c1.005,0.959 2.271,1.658 3.817,2.075c0.177,0.292 0.378,0.56 0.803,0.602c0.815,0.682 1.387,1.699 2.277,2.344c1.012,0.733 2.359,1.056 3.482,1.741c0.098,0.02 0.221,-0.071 0.307,-0.098c0.003,0.001 0.009,-0 0.011,0.002c0.011,0.012 -0.012,0.038 -0,0.049c0.017,0.017 0.05,-0.002 0.075,-0.005c-0.03,0.073 -0.142,0.066 -0.192,0.119c0.562,0.978 1.606,1.474 2.41,2.21c0.568,0.555 0.342,1.394 0.669,2.009c0.14,0.262 0.502,0.253 0.804,0.535c0.538,0.502 0.462,1.325 1.072,1.541c0.195,0.43 0.603,1.002 0.401,1.607c-0.192,-0.121 -0.313,-0.313 -0.67,-0.268c-0.118,0.076 -0.305,0.231 -0.133,0.402c0.06,0.024 0.098,0.026 0.125,0.018l0,0.026c0.012,0 0,0.047 0,0.035l0,0.14c0.012,-0 0,0.046 0,0.035l0,-0.035c-0.023,-0 0.017,0.053 0,0.07c-0.008,0.008 -0.026,-0.009 -0.035,-0c-0.001,0.001 0.001,0.003 0,0.005c-0.083,-0.06 -0.175,-0.085 -0.274,-0.076c-0.437,0.036 -0.977,0.646 -1.154,0.989c0.004,0.242 0.167,0.324 0.201,0.536c-0.273,0.195 -0.511,0.426 -0.469,0.937c0.026,0.02 0.058,0.034 0.092,0.045c-0,0.05 -0.002,0.105 0,0.109c0.008,0.015 0.028,0.021 0.035,0.035c0.005,0.011 -0.005,0.025 0,0.035c0.007,0.015 0.028,0.02 0.035,0.035c0.01,0.021 -0.017,0.053 -0,0.07c0.008,0.008 0.027,-0.008 0.035,-0c0.002,0.002 -0.001,0.01 -0,0.014c-0.143,0.155 -0.2,0.349 -0.13,0.594c0.5,0.239 1.187,0.623 1.798,0.537c0.002,0.002 0.003,0.004 0.006,0.006c0.01,0.005 0.089,-0 0.104,-0l0.21,-0c-0,-0.012 0.046,-0 0.035,-0c0.014,-0.008 0.02,-0.028 0.034,-0.035c0.007,-0.004 0.015,-0.001 0.023,-0c0.001,0.009 -0.001,0.018 -0,0.028c0.937,-0.156 1.325,-0.635 2.142,-0.469c0.029,-0.128 0.025,-0.288 0.201,-0.268c0.03,0.127 -0.091,0.404 0.135,0.335c0.1,-0.286 0.374,-0.399 0.486,-0.672l0.048,-0c0.011,-0 0.026,0.008 0.034,-0c0.009,-0.009 -0.008,-0.027 0,-0.035c0.013,-0.013 0.051,-0.002 0.079,-0c-0.051,0.104 -0.071,0.225 -0.046,0.372c0.355,0.02 0.202,-0.468 0.535,-0.469c-0.01,0.166 -0.012,0.325 0.134,0.335c0.33,-0.466 0.9,-0.502 1.005,-1.072c0.187,-1.02 -1.251,-1.933 -0.804,-2.946c-0.519,-0.263 -0.239,-1.323 -0.536,-1.807c0.363,-2.018 -0.434,-4.192 -1.887,-4.695c-0.008,-0.009 -0.014,-0.018 -0.024,-0.023c-0.015,-0.008 -0.033,-0 -0.049,-0c-0.017,-0.017 -0.029,-0.04 -0.05,-0.05c-0.015,-0.007 -0.034,0.007 -0.049,-0c-0.059,-0.029 -0.089,-0.115 -0.147,-0.146c-0.567,-0.678 -1.529,-1.203 -1.678,-2.051c-0.71,-0.36 -0.871,-1.27 -1.405,-1.808c-0.702,-3.164 -1.963,-5.446 -3.014,-8.169c0.022,-2.061 -1.309,-3.549 -1.941,-5.356c1.29,0.292 2.631,0.136 3.95,0.535c0.92,-0.105 1.962,-0.071 2.813,-0.067c0.197,-0.224 0.511,-0.276 0.803,-0.335c1.767,-0.353 3.243,-1.08 4.62,-1.941c0.468,-0.54 0.867,-1.495 1.339,-1.808c0.105,-0.843 0.494,-1.7 0.536,-2.679c0.161,-3.727 -3.565,-7.038 -6.629,-7.767c-0.891,-0.212 -1.759,-0.177 -2.477,-0.804c-0.5,0.032 -0.623,-0.087 -1.072,-0.2c-0.026,0.115 0.1,0.171 0,0.2c-0.338,-0.262 -1.165,-0.111 -1.138,-0.401c-0.498,0.189 -1.4,-0.24 -1.741,-0c0.041,0.115 0.317,-0.006 0.334,0.134c-1.317,0.222 -2.262,0.817 -3.146,1.473c0.146,0.005 0.433,-0.184 0.469,-0.067c-0.744,0.618 -1.528,1.196 -2.21,1.875c0.127,-0.004 0.277,-0.057 0.439,-0.126c0.002,0.005 0.004,0.011 0,0.014c-0.006,0.006 -0.019,-0.006 -0.025,-0c-0.006,0.006 0.006,0.019 0,0.025c-0.011,0.012 -0.037,-0.012 -0.049,-0c-0.006,0.006 0.006,0.019 0,0.025c-0.006,0.005 -0.019,-0.006 -0.024,-0c-0.006,0.005 0.005,0.018 -0,0.024c-0.006,0.006 -0.02,-0.006 -0.025,0c-0.006,0.006 0.005,0.019 -0,0.025c-0.012,0.011 -0.038,-0.012 -0.049,-0c-0.006,0.005 0.003,0.017 -0,0.025c-0.006,0.01 -0.02,0.014 -0.026,0.024c-0.003,0.007 0,0.016 0,0.025l0,0.116c-0.321,0.057 -0.61,0.147 -0.642,0.492c0.114,-0.057 0.262,-0.114 0.421,-0.164c0.008,-0.003 0.016,-0.006 0.024,-0.009c0.001,0.003 0.002,0.007 0,0.009c-0.006,0.006 -0.019,-0.006 -0.024,-0c-0.006,0.006 0.003,0.017 -0,0.024c-0.006,0.011 -0.02,0.014 -0.025,0.025c-0.007,0.015 0.012,0.038 0,0.049c-0.006,0.006 -0.019,-0.005 -0.024,0c-0.006,0.006 0.005,0.019 -0,0.025c-0.006,0.006 -0.019,-0.005 -0.025,-0c-0.001,0.01 -0.003,0.024 -0,0.024c0.008,0 -0.006,-0.018 -0,-0.024l0,-0c0.001,-0.016 -0,-0.024 -0.025,0.024c-0.005,0.01 0.005,0.07 0,0.075c-0.006,0.005 -0.019,-0.006 -0.024,-0c-0.009,0.008 -0.01,0.013 -0.008,0.017c-0.301,0.018 -0.463,0.047 -0.558,0.394c0.231,-0.119 0.541,-0.158 0.661,-0.387l0.099,0c0.032,0.118 0.026,0.158 -0.023,0.32c-0.328,0.163 -0.825,0.158 -0.938,0.536c0.76,-0.313 1.15,-0.665 2.21,-0.402c-0.11,0.305 0.325,0.212 0.134,0.402c3.758,1.048 4.741,-2.092 8.102,-2.076c0.289,-0.258 0.934,-0.218 1.473,-0.067c1.858,0.52 4.631,3.127 4.888,5.625c0.148,1.429 -0.742,2.716 -1.472,3.281c-0.633,0.488 -1.683,0.937 -2.478,1.072c-0.443,0.074 -0.999,-0.013 -1.473,0.066c-0.593,0.099 -1.166,0.228 -1.875,0.134c-2.171,-0.288 -3.696,-1.552 -5.357,-2.544c-3.053,-1.824 -6.197,-3.656 -9.174,-4.889l0,-0.2c-1.437,0.039 -2.758,-0.561 -4.151,-0.804c-2.126,-0.372 -4.316,-0.504 -6.83,-0.268c-1.858,0.175 -4.115,0.425 -5.96,0.536c-1.385,0.084 -3.537,0.134 -4.352,-0.603c-0.039,-0.035 0.115,-0.129 0.067,-0.201c-0.314,-0.473 -0.972,-0.701 -1.674,-0.736c0.23,-0.147 0.685,-0.043 0.937,0c0.012,-0.369 -0.547,-0.167 -0.736,-0.335c0.149,-0.163 0.486,-0.743 0.067,-0.87c0.074,0.186 0.122,0.566 -0.134,0.602c0.298,-0.875 -0.718,-1.237 -0.737,-1.808c-0.113,-0.132 -0.307,-0.183 -0.468,-0.268c-0.162,-0.836 -1.607,-0.921 -1.942,-0.2c0.457,-0.461 1.598,-0.326 1.674,0.2c-0.217,-0.038 -0.312,0.046 -0.469,0.067c-0.27,-0.61 -1.08,-0.207 -1.54,-0.067c-0.035,-0.099 -0.099,-0.168 -0.134,-0.267c0.675,-0.26 1.798,-1.178 2.344,-0.201c-0.253,-1.74 -2.22,0.235 -3.214,0.268c-0.035,-0.099 -0.1,-0.169 -0.134,-0.268c0.152,-0.092 0.251,0.172 0.268,-0c-0.101,-0.079 -0.275,-0.083 -0.336,-0.201c0.226,0.023 0.676,0.169 0.871,0c-0.412,-0.169 0.502,-0.045 0.402,-0.335c-0.817,0.191 -2.076,0.223 -2.143,-0.536c0.413,0.472 1.934,0.754 2.344,0.067c-0.583,0.165 -1.489,0.362 -1.942,-0.067c0.812,0.298 1.398,-0.195 2.142,-0.334c-0.901,0.035 -2.43,0.827 -2.544,-0.67c0.133,0.001 0.085,0.183 0.268,0.134c0.285,-0.705 0.892,-1.077 0.67,-1.875c-0.181,-0.65 -0.82,-0.749 -1.339,-1.138c0.038,-0.004 0.071,-0.014 0.108,-0.019l0.023,-0c0.002,-0 0.004,0 0.006,-0c0.004,-0.002 0.008,-0.005 0.012,-0.006c0.044,-0.011 -0.031,0.018 0.031,-0.006c0.001,-0.001 0.001,-0.001 0.002,-0.001c0.385,-0.145 0.657,-0.359 0.812,-0.626c0.272,-0.09 0.526,-0.047 0.746,0.39c0.016,-0.261 -0.143,-0.347 -0.2,-0.536c-0.655,-0.361 -1.012,0.283 -1.54,0.335c-1.792,0.175 -1.071,-1.778 -2.009,-2.946c0.118,0.058 0.207,0.224 0.268,-0c-0.406,-0.813 -0.991,-1.446 -1.871,-1.786c-0.001,-0.003 0.001,0.004 -0.003,-0.008c-0.007,-0.02 0.011,0.002 -0.009,-0.018c-0.001,-0.002 0.001,-0.006 -0,-0.008c-0.004,-0.008 -0.014,-0.011 -0.018,-0.018c-0.001,-0.002 0.002,-0.006 0,-0.009c-0.004,-0.006 -0.012,-0.01 -0.017,-0.017c-0.002,-0.002 0.001,-0.006 0,-0.009c-0.002,-0.003 -0.007,-0.005 -0.009,-0.008c-0.001,-0.003 0.002,-0.007 0,-0.009c-0.018,-0.036 0.001,0.009 -0.017,-0.009c-0.002,-0.002 0.001,-0.006 -0,-0.009c-0.002,-0.003 -0.007,-0.005 -0.009,-0.008c0,-0.001 0,-0.001 0,-0.001c0.139,0.04 0.264,0.076 0.346,0.109c-0.09,-0.558 -0.88,-0.415 -1.273,-0.67c0.175,0.019 0.288,-0.024 0.268,-0.201c-0.276,-0.076 -0.762,0.16 -1.272,0.067c-0.534,-0.247 -0.516,-1.046 -1.071,-1.272c-0.498,-1.339 -3.083,-1.81 -4.268,-0.858c0.002,-0.019 0.011,-0.039 -0.001,-0.052c-0.017,-0.016 -0.049,0.011 -0.07,0c-0.03,-0.014 -0.04,-0.055 -0.07,-0.069c-0.02,-0.01 -0.049,0.011 -0.066,-0c0.382,-0.158 0.731,-0.35 1.127,-0.494c-0.067,-0.151 -0.366,0.145 -0.47,-0.067c0.158,-0.083 0.482,-0.221 0.335,-0.402c-0.346,0.322 -0.771,0.571 -1.24,0.69c0.001,-0.002 0.002,-0.005 0,-0.006c-0.004,-0.004 -0.012,0.002 -0.017,-0c-0.008,-0.004 -0.012,-0.012 -0.018,-0.018c-0.005,-0.006 -0.01,-0.013 -0.017,-0.017c-0.005,-0.003 -0.013,0.004 -0.018,-0c-0.004,-0.004 0.005,-0.013 0,-0.018c-0.004,-0.004 -0.012,0.003 -0.017,0c-0.007,-0.003 -0.01,-0.012 -0.016,-0.016c0.36,-0.017 0.666,-0.189 0.875,-0.682c-0.435,0.123 -0.824,0.458 -1.34,0.402c-0.25,-0.027 -0.376,-0.246 -0.602,-0.335c-0.384,-0.15 -0.76,-0.22 -1.114,-0.215c-0.741,0.01 -1.386,0.352 -1.828,0.986l-0.073,-0c-0.006,-0 -0.012,-0.003 -0.017,-0c-0.008,0.004 -0.01,0.014 -0.018,0.017c-0.01,0.006 -0.024,-0.005 -0.035,0c0.247,-0.353 0.53,-0.668 0.808,-0.989c-0.172,-0.048 -0.322,-0.065 -0.456,-0.056Zm60.262,58.52l-0.035,-0c-0,0.011 0.024,0.005 0.035,-0Zm-0.489,-4.081l0,-0.035c-0.011,0 0,0.024 0,0.035Zm-60.006,-20.506c-0.069,-0.279 -0.118,-0.575 -0.14,-0.893c-0.005,-0.005 -0.011,-0.008 -0.013,-0.014c-0.011,-0.021 0.016,-0.053 -0,-0.07c-0.009,-0.008 -0.027,0.008 -0.035,0c-0.009,-0.008 -0,-0.023 -0,-0.035l-0,-0.42c-0.007,-0.037 -0.012,-0.069 -0.02,-0.108c-0.492,2.218 0.289,3.214 0.208,1.54l-0,0Zm0.265,-32.961c0,0.001 0.001,0.003 0,0.004c-0,-0 -0.004,-0.001 -0.005,-0c0.001,-0.001 0.003,-0.003 0.005,-0.004Zm-10.557,15.891c-0.727,0.077 -1.439,0.169 -1.674,0.737c0.544,-0.259 1.125,-0.482 1.674,-0.737Zm60.582,1.277c0.001,0.003 0.002,0.006 0,0.007c-0.004,0.004 -0.014,0.001 -0.023,0c0.008,-0.002 0.015,-0.005 0.023,-0.007Zm-54.221,10.174c-0.015,0.87 0.232,1.799 0.335,2.745c-0.371,-0.639 -0.653,-1.833 -0.335,-2.745Zm62.859,27.485c0.01,0.003 0.024,-0.007 0.032,0c0.006,0.006 0.001,0.016 0,0.025c-0.005,0.004 -0.011,0.007 -0.016,0.011c-0.003,-0.013 -0.011,-0.024 -0.016,-0.036l-0,0Z" style="fill:#3067ff;"/></g></svg>